<?xml version="1.0" encoding="utf-8"?>
<!-- Generator: Adobe Illustrator 22.1.0, SVG Export Plug-In . SVG Version: 6.00 Build 0)  -->
<svg version="1.1" id="Layer_1" xmlns="http://www.w3.org/2000/svg" xmlns:xlink="http://www.w3.org/1999/xlink" x="0px" y="0px"
	 viewBox="0 0 265.8 77.3" style="enable-background:new 0 0 265.8 77.3;" xml:space="preserve">
<style type="text/css">
	.st0{fill:#FFFFFF;}
</style>
<g>
	<polygon class="st0" points="265.8,22.6 201.9,22.6 215,0 252.7,0 	"/>
	<g>
		<path class="st0" d="M177.6,61c0-1.3-0.2-2.5-0.4-3.7c-1.6-7.1-6.7-12.6-14.8-12.6c-8.6,0-16,7.3-16,16.3c0,0.3,0,0.6,0,0.8
			c0,0.3,0,0.5,0.1,0.8c0.8,8.2,7.4,14.7,15.5,14.7c7,0,12.6-3.5,15.2-7.8l-6.3-3.1c-1.6,2.5-4.3,4.2-7.4,4.2
			c-5.3,0-8.7-4.2-8.8-7.3h22.8C177.5,62.5,177.6,61.7,177.6,61z M155.3,57.2c0.1-2.8,3.4-5.8,7.1-5.8c3.6,0,6.6,2.9,6.6,5.8H155.3z
			"/>
		<path class="st0" d="M200.6,44.7c-0.4,0-0.9-0.1-1.5-0.1c-1.9,0-3.7,0.3-5.3,1c-1.6,0.7-2.9,1.6-3.8,2.8v-3.2h-8.1v31.4h8.4V56.9
			c0.1-0.1,0.1-0.2,0.2-0.4c0.1-0.2,0.3-0.4,0.4-0.6c0.1-0.2,0.3-0.3,0.4-0.5c0.5-0.5,1.1-1,1.7-1.5c0.3-0.2,0.6-0.4,0.9-0.5
			c0.3-0.2,0.6-0.3,0.9-0.4c0.2-0.1,0.3-0.1,0.4-0.2c0.1,0,0.2-0.1,0.2-0.1c0.2-0.1,0.4-0.1,0.6-0.2c0.9-0.3,1.9-0.4,2.8-0.4
			c0.7,0,1.4,0.1,2,0.2c0.3,0.1,0.6,0.1,0.9,0.2v-7.7C201.5,44.8,201,44.7,200.6,44.7z"/>
		<path class="st0" d="M141.7,54.1c-0.6-1.7-1.4-3.1-2.4-4.4c-1.3-1.6-2.9-2.8-4.8-3.7c-1.9-0.9-3.9-1.4-6.1-1.4
			c-1.6,0-3.2,0.3-4.6,0.8c-1.4,0.5-2.8,1.2-3.9,2.1V31.4h-8.4v45.3h8.4V56.3c0.3-0.4,0.7-0.8,1.2-1.3c0.5-0.4,1.1-0.9,1.7-1.3
			c0.6-0.4,1.4-0.7,2.2-1c0.8-0.3,1.6-0.4,2.5-0.4c2,0,3.6,0.6,4.7,1.8c0.6,0.6,1.1,1.3,1.4,2.2c0.3,0.9,0.5,2.1,0.5,3.6v16.6h8.4
			v-16C142.5,58,142.2,55.8,141.7,54.1z"/>
		<path class="st0" d="M102.7,52.4l4.1-7.1H95v-7.7h-8.4v25.8c0,2.2,0.2,4.1,0.5,5.6c0.4,1.5,1,2.7,1.8,3.8c1.1,1.4,2.5,2.5,4.3,3.3
			c1.8,0.8,4,1.2,6.5,1.2c0.8,0,1.8-0.1,2.8-0.2c1-0.1,2.2-0.4,2.8-0.6v-7.3c-0.3,0.1-2.9,0.6-5,0.6c-1,0-1.9-0.2-2.6-0.4
			c-0.7-0.3-1.2-0.7-1.7-1.1c-0.3-0.4-0.6-1-0.8-1.6c-0.2-0.6-0.3-1.4-0.3-2.4v-12H102.7z"/>
		<path class="st0" d="M80.8,44.7c-0.4,0-0.9-0.1-1.5-0.1c-1.9,0-3.7,0.3-5.3,1c-1.6,0.7-2.9,1.6-3.8,2.8v-3.2h-8.1v31.4h8.4V56.9
			c0.1-0.1,0.1-0.2,0.2-0.4c0.1-0.2,0.3-0.4,0.5-0.6c0.1-0.2,0.3-0.3,0.4-0.5c0.5-0.5,1.1-1,1.7-1.5c0.3-0.2,0.6-0.4,0.9-0.5
			c0.3-0.2,0.6-0.3,0.9-0.4c0.2-0.1,0.3-0.1,0.4-0.2c0.1,0,0.1-0.1,0.2-0.1c0.2-0.1,0.4-0.1,0.6-0.2c0.9-0.3,1.9-0.4,2.9-0.4
			c0.7,0,1.4,0.1,2,0.2c0.3,0.1,0.6,0.1,0.9,0.2v-7.7C81.6,44.8,81.2,44.7,80.8,44.7z"/>
		<path class="st0" d="M47.8,45.3v20.4c-0.3,0.4-0.7,0.8-1.1,1.3c-0.5,0.4-1,0.9-1.6,1.3c-0.6,0.4-1.3,0.7-2.1,1
			c-0.8,0.3-1.6,0.4-2.5,0.4c-0.8,0-1.6-0.1-2.5-0.4c-0.8-0.3-1.6-0.8-2.2-1.5c-0.5-0.6-0.9-1.2-1.1-2c-0.3-0.8-0.4-1.9-0.4-3.3
			V45.3h-8.4v16.6c0,2.3,0.3,4.3,0.8,6c0.6,1.7,1.3,3.1,2.3,4.4c1.2,1.5,2.8,2.7,4.6,3.7c1.8,0.9,3.8,1.4,6,1.4c1.5,0,3-0.2,4.4-0.8
			c1.4-0.5,2.8-1.3,4-2.4v2.5h8.1V45.3H47.8z"/>
		<polygon class="st0" points="8.7,48.5 8.7,39.1 27.1,39.1 31.5,31.4 31.5,31.4 0,31.4 0,76.6 8.7,76.6 8.7,56.3 17.2,56.3 
			21.6,48.5 		"/>
	</g>
	<polygon class="st0" points="237.5,26.4 226.6,45.3 252.7,45.3 263.6,26.4 	"/>
</g>
</svg>
