<?xml version="1.0" encoding="utf-8"?>
<!-- Generator: Adobe Illustrator 16.0.0, SVG Export Plug-In . SVG Version: 6.00 Build 0)  -->
<!DOCTYPE svg PUBLIC "-//W3C//DTD SVG 1.1//EN" "http://www.w3.org/Graphics/SVG/1.1/DTD/svg11.dtd">
<svg version="1.1" id="Layer_4" xmlns="http://www.w3.org/2000/svg" xmlns:xlink="http://www.w3.org/1999/xlink" x="0px" y="0px"
	 width="333.494px" height="90.828px" viewBox="0 0 333.494 90.828" enable-background="new 0 0 333.494 90.828"
	 xml:space="preserve">
<g>
	<g>
		<g>
			<path fill="none" stroke="#FFFFFF" stroke-width="2" d="M132.939,43.952c-1.05,0.769-2.474,1.236-4.272,1.405
				c-0.207,0.019-0.431,0.032-0.674,0.042c-0.244,0.01-0.497,0.015-0.759,0.015c-3.036,0-5.509-0.956-7.421-2.867
				c-1.93-1.93-2.895-4.413-2.895-7.448c0-3.036,0.956-5.51,2.867-7.421c1.93-1.93,4.413-2.896,7.449-2.896
				c1.724,0,3.278,0.254,4.666,0.76c0.824,0.318,1.621,0.777,2.389,1.377v1.434c-0.787-0.656-1.649-1.181-2.586-1.574
				c-1.424-0.58-2.914-0.871-4.469-0.871c-2.662,0-4.854,0.861-6.578,2.586c-1.724,1.724-2.586,3.926-2.586,6.605
				s0.853,4.872,2.558,6.576c1.724,1.725,3.925,2.587,6.605,2.587c1.667,0,3.12-0.3,4.356-0.9c0.712-0.355,1.611-0.927,2.698-1.714
				v1.321L132.939,43.952z"/>
			<path fill="none" stroke="#FFFFFF" stroke-width="2" d="M150.703,41.311v3.822h-1.181v-3.822h-10.315l11.496-16.528v15.403h2.333
				v1.125H150.703z M149.522,28.353l-8.263,11.833h8.263V28.353z"/>
		</g>
		<g>
			<path fill="#FFFFFF" stroke="#FFFFFF" stroke-width="0.5" d="M170.197,69.237c-1.797,1.53-3.957,2.294-6.475,2.294
				c-4.317,0-7.555-1.956-9.714-5.869l2.361-1.416c0.764,1.395,1.687,2.474,2.766,3.237c1.124,0.855,2.653,1.282,4.587,1.282
				c4.227,0,6.342-1.799,6.342-5.396c0-1.574-0.742-2.945-2.227-4.115c-0.451-0.271-1.092-0.573-1.923-0.911
				c-0.833-0.337-1.855-0.73-3.069-1.18c-2.249-0.81-3.869-1.62-4.857-2.429c-1.44-1.169-2.159-2.855-2.159-5.06
				c0-1.889,0.718-3.508,2.159-4.856c1.394-1.394,3.215-2.092,5.463-2.092c3.104,0,5.735,1.08,7.894,3.238l-2.023,1.754
				c-1.529-1.528-3.486-2.294-5.87-2.294c-3.238,0-4.856,1.417-4.856,4.25c0,1.26,0.494,2.294,1.483,3.103
				c0.811,0.631,2.092,1.237,3.846,1.822c1.528,0.539,2.789,1.045,3.778,1.518c0.988,0.472,1.73,0.889,2.225,1.248
				c1.934,1.484,2.902,3.485,2.902,6.004C172.83,65.797,171.953,67.754,170.197,69.237z"/>
			<path fill="#FFFFFF" stroke="#FFFFFF" stroke-width="0.5" d="M189.762,45.897v25.094h-2.766V45.897h-3.779v-2.766h3.779v-12.21
				h2.766v12.21h6.475v2.766H189.762z"/>
			<path fill="#FFFFFF" stroke="#FFFFFF" stroke-width="0.5" d="M226.93,68.563c-1.844,1.979-4.43,2.968-7.756,2.968
				c-3.285,0-5.826-0.967-7.623-2.9c-1.801-1.934-2.699-4.632-2.699-8.095V43.132h2.766v17.404c0,2.653,0.584,4.699,1.754,6.139
				c1.215,1.439,3.148,2.158,5.803,2.158c5.17,0,7.756-2.766,7.756-8.297V43.132h2.699v17.404
				C229.629,63.954,228.729,66.63,226.93,68.563z"/>
			<path fill="#FFFFFF" stroke="#FFFFFF" stroke-width="0.5" d="M269.361,70.991V66c-2.969,3.643-6.746,5.464-11.334,5.464
				c-4.047,0-7.443-1.371-10.186-4.115c-2.789-2.788-4.184-6.206-4.184-10.253c0-4.048,1.373-7.442,4.115-10.187
				c2.789-2.788,6.207-4.183,10.254-4.183c4.453,0,8.23,1.821,11.334,5.465V21.072h2.766v49.919H269.361z M266.258,48.865
				c-2.293-2.294-5.037-3.44-8.23-3.44c-3.238,0-5.98,1.125-8.23,3.373c-2.293,2.293-3.439,5.06-3.439,8.298
				c0,3.193,1.146,5.936,3.439,8.229c2.295,2.294,5.037,3.44,8.23,3.44c3.238,0,5.98-1.124,8.23-3.373
				c2.293-2.294,3.439-5.06,3.439-8.297C269.697,53.902,268.551,51.159,266.258,48.865z"/>
			<path fill="#FFFFFF" stroke="#FFFFFF" stroke-width="0.5" d="M329.129,67.281c-2.789,2.789-6.207,4.183-10.254,4.183
				c-4.049,0-7.443-1.371-10.188-4.115c-2.789-2.788-4.182-6.206-4.182-10.253c0-4.003,1.393-7.397,4.182-10.187
				c2.744-2.833,6.139-4.25,10.188-4.25c4.002,0,7.396,1.395,10.186,4.183c2.789,2.789,4.184,6.206,4.184,10.254
				C333.244,61.143,331.871,64.539,329.129,67.281z M327.172,48.798c-2.25-2.293-5.016-3.44-8.297-3.44
				c-3.148,0-5.869,1.17-8.162,3.508c-2.34,2.339-3.508,5.083-3.508,8.23c0,3.193,1.146,5.936,3.439,8.229s5.037,3.44,8.23,3.44
				c3.236,0,5.98-1.124,8.23-3.373c2.293-2.294,3.439-5.06,3.439-8.297C330.545,53.813,329.42,51.047,327.172,48.798z"/>
			<g>
				<rect x="287.574" y="48.19" fill="#FFFFFF" stroke="#FFFFFF" stroke-width="0.5" width="2.766" height="22.801"/>
				<rect x="287.576" y="42.435" fill="#FFFFFF" stroke="#FFFFFF" stroke-width="0.5" width="2.766" height="2.563"/>
			</g>
		</g>
	</g>
	<g>
		<polygon fill="#FFFFFF" points="57.272,70.848 62.604,56.197 62.605,56.198 77.257,61.528 66.593,90.828 37.292,80.165 
			37.292,80.165 42.625,65.514 42.719,65.548 57.272,70.848 		"/>
		<g>
			<polygon fill="#FFFFFF" points="19.982,57.271 34.632,62.604 34.631,62.605 29.301,77.256 0,66.594 10.664,37.291 10.664,37.291 
				25.315,42.623 25.28,42.718 19.982,57.271 			"/>
		</g>
		<g>
			<polygon fill="#FFFFFF" points="33.559,19.982 28.227,34.632 28.225,34.632 13.574,29.301 24.237,0 53.539,10.664 53.539,10.664 
				48.207,25.314 48.112,25.28 33.559,19.982 			"/>
		</g>
		<g>
			<polygon fill="#FFFFFF" points="78.114,30.17 63.464,24.838 63.464,24.836 68.795,10.186 98.096,20.849 87.432,50.15 
				87.432,50.15 72.781,44.818 72.815,44.724 78.114,30.17 			"/>
		</g>
	</g>
</g>
</svg>
